<?xml version="1.0" encoding="UTF-8"?>
<!DOCTYPE svg PUBLIC "-//W3C//DTD SVG 1.1//EN" "http://www.w3.org/Graphics/SVG/1.1/DTD/svg11.dtd">
<!-- Creator: CorelDRAW 2020 (64 Bit) -->
<svg xmlns="http://www.w3.org/2000/svg" xml:space="preserve" width="25px" height="25px" version="1.1" style="shape-rendering:geometricPrecision; text-rendering:geometricPrecision; image-rendering:optimizeQuality; fill-rule:evenodd; clip-rule:evenodd"
viewBox="0 0 25 25"
 xmlns:xlink="http://www.w3.org/1999/xlink"
 xmlns:xodm="http://www.corel.com/coreldraw/odm/2003">
 <defs>
  <style type="text/css">
   <![CDATA[
    .fil1 {fill:#2B2A29}
    .fil0 {fill:#2B2A29}
    .fil2 {fill:#2B2A29;fill-rule:nonzero}
   ]]>
  </style>
 </defs>
 <g id="Camada_x0020_1">
  <metadata id="CorelCorpID_0Corel-Layer"/>
  <g id="_808160352">
   <path class="fil0" d="M24.5 13c0,-6.9 -5.6,-12.5 -12.5,-12.5 -6.9,0 -12.5,5.6 -12.5,12.5 0,6.9 5.6,12.5 12.5,12.5 6.9,0 12.5,-5.6 12.5,-12.5zm-1.26 0c0,-6.21 -5.03,-11.24 -11.24,-11.24 -6.21,0 -11.24,5.03 -11.24,11.24 0,6.21 5.03,11.24 11.24,11.24 6.21,0 11.24,-5.03 11.24,-11.24z"/>
   <g>
    <path class="fil1" d="M11.71 12.24c0.98,-0.14 1.84,0.27 2.38,0.72 0.52,0.43 0.99,1.12 1.09,2.03 0.21,1.83 -1.14,3.26 -2.73,3.46 -1,0.13 -1.86,-0.26 -2.4,-0.72 -2.03,-1.72 -1.15,-5.11 1.66,-5.49l0 0zm-1.31 3.25c0.09,0.88 0.85,1.61 1.83,1.52 0.85,-0.08 1.59,-0.84 1.51,-1.81 -0.08,-0.87 -0.83,-1.61 -1.83,-1.52 -0.85,0.07 -1.6,0.85 -1.51,1.81l0 0zm-6.93 -1.92c0.16,0.19 1.54,0.57 1.95,0.57 0.84,0 1.68,0 2.51,0.01l-0.13 0.6c-0.19,0.02 -2.98,0.01 -3.26,0.01 -0.94,0 -0.62,-0.06 -1.49,0.13 -0.2,0.05 -1.09,0.29 -1.17,0.45 0.08,0.12 0.4,0.2 0.56,0.26 0.33,0.12 1.01,0.31 1.32,0.33 0.67,0.02 3.82,-0.04 4.05,0.01l0.11 0.57c-0.85,0.01 -1.7,-0.01 -2.54,0 -0.36,0 -1.8,0.37 -1.91,0.58 0.08,0.11 0.32,0.18 0.48,0.23l0.28 0.1c0.01,0 0.01,0 0.02,0 0.54,0.15 0.79,0.25 1.42,0.25 0.3,0 2.72,-0.02 2.79,0.01 0.05,0.05 0.11,0.15 0.15,0.21 0.05,0.07 0.1,0.13 0.16,0.2 0.09,0.12 0.22,0.25 0.33,0.36 0.24,0.22 0.48,0.41 0.8,0.6 1.36,0.79 3,0.79 4.36,-0.01 0.4,-0.24 0.84,-0.61 1.12,-0.97 0.08,-0.09 0.23,-0.32 0.31,-0.39 0.16,-0.07 2.73,0.09 3.33,-0.06 0.3,-0.08 1.4,-0.35 1.5,-0.53 -0.06,-0.15 -0.72,-0.32 -0.86,-0.36 -0.23,-0.08 -0.73,-0.22 -1,-0.22 -0.54,0 -2.02,0.02 -2.45,-0.01l0.12 -0.57c1.04,-0.04 2.15,0 3.2,0 0.76,0 0.7,0.05 1.45,-0.15 0.24,-0.07 1.04,-0.28 1.13,-0.44 -0.08,-0.15 -0.9,-0.38 -1.15,-0.44 -0.83,-0.2 -0.56,-0.14 -1.43,-0.14 -1.06,0 -2.15,0.02 -3.2,0l-0.12 -0.61c0.28,-0.04 0.89,-0.01 1.21,-0.01 1.01,0 1.23,0.09 2.23,-0.22 0.2,-0.06 0.78,-0.21 0.87,-0.35 -0.02,-0.08 -0.07,-0.08 -0.21,-0.15 -0.07,-0.03 -0.16,-0.06 -0.25,-0.09 -0.54,-0.2 -1.09,-0.35 -1.69,-0.35 -0.49,0 -2.4,0.03 -2.72,0 -0.3,-0.52 -0.89,-1.04 -1.42,-1.35 -0.59,-0.34 -1.31,-0.59 -2.17,-0.59 -1.22,0 -2.16,0.47 -2.96,1.19 -0.12,0.12 -0.22,0.23 -0.33,0.37 -0.1,0.11 -0.19,0.26 -0.29,0.38 -0.04,0.02 -2.52,0 -2.81,0 -0.52,0 -0.77,0.05 -1.23,0.19 -0.18,0.05 -0.93,0.25 -0.97,0.4l0 0z"/>
    <path class="fil2" d="M6.75 6.42l-0.38 2.87 -1.13 0 -0.43 -2.87 0.78 0c0.09,0.79 0.16,1.46 0.2,2.01 0.04,-0.56 0.08,-1.05 0.12,-1.48l0.05 -0.53 0.79 0zm1.37 0l0.42 2.87 -0.76 0 -0.04 -0.52 -0.27 0 -0.04 0.52 -0.77 0 0.37 -2.87 1.09 0 0 0zm-0.4 1.84c-0.04,-0.32 -0.07,-0.72 -0.11,-1.2 -0.08,0.55 -0.13,0.95 -0.15,1.2l0.26 0zm2.64 -1.84l0 1.92c0,0.21 0,0.37 -0.02,0.46 -0.01,0.08 -0.05,0.17 -0.12,0.27 -0.07,0.09 -0.16,0.16 -0.28,0.21 -0.11,0.05 -0.25,0.07 -0.4,0.07 -0.17,0 -0.32,-0.03 -0.45,-0.09 -0.14,-0.05 -0.23,-0.13 -0.3,-0.22 -0.06,-0.09 -0.1,-0.18 -0.11,-0.29 -0.02,-0.1 -0.02,-0.31 -0.02,-0.63l0 -1.7 0.75 0 0 2.15c0,0.13 0,0.21 0.02,0.24 0.01,0.04 0.04,0.05 0.08,0.05 0.04,0 0.07,-0.02 0.09,-0.05 0.01,-0.04 0.02,-0.13 0.02,-0.28l0 -2.11 0.74 0zm1.04 0l0 2.29 0.45 0 0 0.58 -1.2 0 0 -2.87 0.75 0zm1.87 0l0 0.57 -0.43 0 0 2.3 -0.75 0 0 -2.3 -0.44 0 0 -0.57 1.62 0zm0.78 1.45l0 0.49 -0.93 0 0 -0.49 0.93 0zm1.72 -1.45l0 0.57 -0.44 0 0 2.3 -0.74 0 0 -2.3 -0.45 0 0 -0.57 1.63 0zm0.17 0l1.25 0 0 0.57 -0.5 0 0 0.55 0.46 0 0 0.54 -0.46 0 0 0.63 0.55 0 0 0.58 -1.3 0 0 -2.87 0 0zm3.25 1.25l-0.75 0 0 -0.5c0,-0.14 -0.01,-0.23 -0.02,-0.27 -0.02,-0.03 -0.05,-0.05 -0.11,-0.05 -0.06,0 -0.09,0.02 -0.11,0.06 -0.02,0.05 -0.03,0.14 -0.03,0.29l0 1.33c0,0.14 0.01,0.23 0.03,0.27 0.02,0.04 0.05,0.06 0.11,0.06 0.05,0 0.09,-0.02 0.11,-0.06 0.01,-0.04 0.02,-0.14 0.02,-0.3l0 -0.36 0.75 0 0 0.11c0,0.3 -0.02,0.51 -0.06,0.63 -0.04,0.13 -0.14,0.24 -0.28,0.33 -0.14,0.09 -0.32,0.14 -0.53,0.14 -0.22,0 -0.4,-0.04 -0.54,-0.12 -0.14,-0.08 -0.24,-0.19 -0.28,-0.33 -0.05,-0.14 -0.07,-0.35 -0.07,-0.63l0 -0.84c0,-0.2 0,-0.36 0.02,-0.46 0.01,-0.11 0.05,-0.21 0.13,-0.3 0.07,-0.1 0.16,-0.17 0.29,-0.23 0.12,-0.05 0.27,-0.08 0.43,-0.08 0.22,0 0.4,0.04 0.54,0.13 0.14,0.08 0.24,0.19 0.28,0.32 0.05,0.12 0.07,0.32 0.07,0.59l0 0.27 0 0z"/>
   </g>
  </g>
 </g>
</svg>
