<?xml version="1.0" encoding="UTF-8"?>
<!DOCTYPE svg PUBLIC "-//W3C//DTD SVG 1.1//EN" "http://www.w3.org/Graphics/SVG/1.1/DTD/svg11.dtd">
<!-- Creator: CorelDRAW 2020 (64 Bit) -->
<svg xmlns="http://www.w3.org/2000/svg" xml:space="preserve" width="60px" height="60px" version="1.1" style="shape-rendering:geometricPrecision; text-rendering:geometricPrecision; image-rendering:optimizeQuality; fill-rule:evenodd; clip-rule:evenodd"
viewBox="0 0 60 60"
 xmlns:xlink="http://www.w3.org/1999/xlink"
 xmlns:xodm="http://www.corel.com/coreldraw/odm/2003">
 <defs>
  <style type="text/css">
   <![CDATA[
    .fil0 {fill:#2B2A29}
   ]]>
  </style>
 </defs>
 <g id="Camada_x0020_1">
  <metadata id="CorelCorpID_0Corel-Layer"/>
  <path class="fil0" d="M20.98 10.71c2.99,-0.2 6.61,-0.03 9.67,-0.03 2.07,0 7.89,-0.12 9.56,0.17 4.84,0.85 8.79,4.89 9.23,10.21 0.12,1.49 0.02,3.34 0.02,4.87 0,2.61 0.15,12.57 -0.17,14.39 -0.85,4.84 -4.91,8.84 -10.21,9.24 -2.95,0.22 -6.64,0.03 -9.68,0.03 -2.05,0 -7.94,0.13 -9.57,-0.17 -4.86,-0.87 -8.85,-4.86 -9.26,-10.15 -0.23,-2.99 -0.04,-6.7 -0.04,-9.76 0,-2.08 -0.13,-7.92 0.18,-9.59 0.9,-4.88 4.92,-8.84 10.27,-9.21zm8.13 13.06c-3.33,0.51 -6.17,3.49 -5.57,7.45 0.49,3.21 3.52,6.07 7.42,5.47 3.24,-0.49 6.07,-3.5 5.51,-7.39 -0.46,-3.22 -3.52,-6.13 -7.36,-5.53zm10.91 7.77c-0.68,5.12 -5.3,9.47 -11.31,8.71 -5.1,-0.64 -9.54,-5.38 -8.73,-11.36 0.7,-5.1 5.37,-9.46 11.36,-8.67 5.05,0.67 9.48,5.35 8.68,11.32zm-0.24 -14.03c1.41,-0.45 2.58,0.52 2.9,1.51 0.46,1.47 -0.5,2.68 -1.54,2.99 -2.91,0.87 -4.46,-3.49 -1.36,-4.5zm-25.63 21.66c0.15,2.38 1.46,4.23 2.74,5.26 1.85,1.49 3.32,1.65 6.22,1.65 2.65,0 5.29,0 7.93,0 2.5,0 5.46,0.15 7.9,-0.01 2.43,-0.16 4.2,-1.45 5.21,-2.68 1.56,-1.91 1.72,-3.29 1.72,-6.25 0,-2.64 0,-5.28 0,-7.92 0,-2.48 0.16,-5.53 -0.02,-7.93 -0.19,-2.53 -1.49,-4.23 -2.77,-5.27 -1.84,-1.5 -3.39,-1.65 -6.24,-1.65 -2.64,0 -5.28,0 -7.93,0 -2.44,0 -5.54,-0.16 -7.9,0.02 -2.43,0.19 -4.08,1.43 -5.18,2.71 -1.46,1.69 -1.69,3.43 -1.69,6.22 0,2.64 0,5.28 0,7.93 0,2.5 -0.15,5.48 0.01,7.92zm14.16 -39.1c-4.57,0.31 -8.29,1.41 -11.84,3.17 -2.78,1.38 -6.46,4.11 -8.54,6.45 -4.52,5.1 -8.4,12.28 -7.89,22.03 0.84,15.85 14.63,29.26 31.68,28.22 21.2,-1.28 34.86,-23.54 25.04,-43.48 -1.95,-3.95 -5.28,-7.81 -8.47,-10.2 -5.7,-4.26 -12.5,-6.71 -19.98,-6.19z"/>
 </g>
</svg>
