<?xml version="1.0" encoding="UTF-8"?>
<!DOCTYPE svg PUBLIC "-//W3C//DTD SVG 1.1//EN" "http://www.w3.org/Graphics/SVG/1.1/DTD/svg11.dtd">
<!-- Creator: CorelDRAW 2020 (64 Bit) -->
<svg xmlns="http://www.w3.org/2000/svg" xml:space="preserve" width="15px" height="15px" version="1.1" style="shape-rendering:geometricPrecision; text-rendering:geometricPrecision; image-rendering:optimizeQuality; fill-rule:evenodd; clip-rule:evenodd"
viewBox="0 0 14.06 14.06"
 xmlns:xlink="http://www.w3.org/1999/xlink"
 xmlns:xodm="http://www.corel.com/coreldraw/odm/2003">
 <defs>
  <style type="text/css">
   <![CDATA[
    .fil0 {fill:#FEFEFE}
   ]]>
  </style>
 </defs>
 <g id="Camada_x0020_1">
  <metadata id="CorelCorpID_0Corel-Layer"/>
  <path class="fil0" d="M7.03 0c3.89,0 7.03,3.15 7.03,7.03 0,3.89 -3.14,7.03 -7.03,7.03 -3.88,0 -7.03,-3.14 -7.03,-7.03 0,-3.88 3.15,-7.03 7.03,-7.03zm-0.02 5c-0.13,-0.07 -0.28,-0.18 -0.41,-0.22 -0.01,-0.02 -0.35,-0.23 -0.42,-0.24 -0.06,-0.07 -0.3,-0.19 -0.39,-0.24 -0.15,-0.08 -0.27,-0.16 -0.47,-0.09 -0.36,0.15 -0.27,0.56 -0.27,0.99 0,0.83 0.01,1.67 0,2.5l0 0.99c0,0.22 -0.03,0.8 0.06,0.97 0.04,0.08 0.15,0.19 0.28,0.21 0.14,0.03 0.31,-0.02 0.37,-0.11 0.1,-0.01 1.31,-0.74 1.45,-0.82 0.12,-0.07 0.38,-0.2 0.47,-0.27l1.57 -0.9c0.15,-0.1 0.7,-0.38 0.76,-0.47 0.08,-0.12 0.12,-0.31 0.04,-0.46 -0.06,-0.12 -0.19,-0.2 -0.33,-0.28l-2.71 -1.56z"/>
 </g>
</svg>
