<?xml version="1.0" encoding="UTF-8"?>
<!DOCTYPE svg PUBLIC "-//W3C//DTD SVG 1.1//EN" "http://www.w3.org/Graphics/SVG/1.1/DTD/svg11.dtd">
<!-- Creator: CorelDRAW 2020 (64 Bit) -->
<svg xmlns="http://www.w3.org/2000/svg" xml:space="preserve" width="60px" height="60px" version="1.1" style="shape-rendering:geometricPrecision; text-rendering:geometricPrecision; image-rendering:optimizeQuality; fill-rule:evenodd; clip-rule:evenodd"
viewBox="0 0 60 60"
 xmlns:xlink="http://www.w3.org/1999/xlink"
 xmlns:xodm="http://www.corel.com/coreldraw/odm/2003">
 <defs>
  <style type="text/css">
   <![CDATA[
    .fil0 {fill:#2B2A29}
   ]]>
  </style>
 </defs>
 <g id="Camada_x0020_1">
  <metadata id="CorelCorpID_0Corel-Layer"/>
  <path class="fil0" d="M43.64 44.97c-0.53,-1.52 -19.23,-25.32 -22.23,-29.93l-4.97 0.01c0.49,1.09 18.99,25.5 21.29,28.62 1.32,1.8 1.32,1.29 5.91,1.3zm-31.98 -32.31l10.94 -0.02c1.71,2.58 5.85,7.83 8.1,10.86l1.3 1.56c0.65,-0.45 0.93,-0.98 1.49,-1.57l8.8 -9.4c1.35,-1.59 0.87,-1.58 4.43,-1.42l-8.13 8.92c-0.99,1.16 -4.49,4.54 -5.07,5.61 1.43,2.46 14.42,18.82 14.9,20.16l-10.94 -0.01 -5.05 -6.78c-0.81,-1.1 -4.51,-6.34 -5.26,-6.76 -0.9,1.21 -2.08,2.24 -3.11,3.45l-8.05 8.75c-1.51,1.67 -1.65,1.36 -4.41,1.34l14.18 -15.55 -14.12 -19.14zm16.91 -12.66l2.76 0c4.12,0.18 8.17,1.14 11.6,2.87 6.76,3.4 10.88,7.61 14.27,14.33 2.38,4.7 2.8,8.68 2.8,14.2 0,7.46 -3.95,15.06 -8.75,19.85 -5.22,5.22 -12.29,8.26 -19.48,8.75l-4.1 0c-3.67,-0.25 -7.28,-1.19 -10.6,-2.87 -6.76,-3.4 -10.88,-7.61 -14.27,-14.33 -2.38,-4.7 -2.8,-8.68 -2.8,-14.2 0,-4.1 1.46,-8.74 2.87,-11.53 3.4,-6.76 7.61,-10.88 14.33,-14.27 3.36,-1.7 7.33,-2.63 11.37,-2.8z"/>
 </g>
</svg>
