<?xml version="1.0" encoding="UTF-8"?>
<!DOCTYPE svg PUBLIC "-//W3C//DTD SVG 1.1//EN" "http://www.w3.org/Graphics/SVG/1.1/DTD/svg11.dtd">
<!-- Creator: CorelDRAW 2020 (64 Bit) -->
<svg xmlns="http://www.w3.org/2000/svg" xml:space="preserve" width="60px" height="60px" version="1.1" style="shape-rendering:geometricPrecision; text-rendering:geometricPrecision; image-rendering:optimizeQuality; fill-rule:evenodd; clip-rule:evenodd"
viewBox="0 0 60 60"
 xmlns:xlink="http://www.w3.org/1999/xlink"
 xmlns:xodm="http://www.corel.com/coreldraw/odm/2003">
 <defs>
  <style type="text/css">
   <![CDATA[
    .fil0 {fill:#2B2A29}
   ]]>
  </style>
 </defs>
 <g id="Camada_x0020_1">
  <metadata id="CorelCorpID_0Corel-Layer"/>
  <path class="fil0" d="M6.54 49.1c2.59,3.33 5.84,5.87 9.63,7.93 2.49,1.35 5.8,2.44 9.07,2.97l-0.02 -21.15 -7.49 0 -0.01 -8.7 7.49 0c0.03,-6.27 -0.69,-11.3 3.03,-15.19 3.58,-3.74 8.76,-3.57 14.93,-2.65l0.13 7.59c-3.26,-0.06 -6.07,-0.58 -7.74,1.59 -1.41,1.82 -1.04,6.16 -0.87,8.81l8.25 0.02 -1.33 8.67 -6.98 -0.03 0.01 21.02c14.39,-2.2 25.75,-15.8 25.35,-30.46 -0.13,-4.58 -1.22,-8.77 -2.96,-12.41 -5.02,-10.5 -15.79,-17.14 -27.37,-17.11 -24.98,0.07 -38.56,29.25 -23.12,49.1z"/>
 </g>
</svg>
