<?xml version="1.0" encoding="UTF-8"?>
<!DOCTYPE svg PUBLIC "-//W3C//DTD SVG 1.1//EN" "http://www.w3.org/Graphics/SVG/1.1/DTD/svg11.dtd">
<!-- Creator: CorelDRAW 2020 (64 Bit) -->
<svg xmlns="http://www.w3.org/2000/svg" xml:space="preserve" width="60px" height="60px" version="1.1" style="shape-rendering:geometricPrecision; text-rendering:geometricPrecision; image-rendering:optimizeQuality; fill-rule:evenodd; clip-rule:evenodd"
viewBox="0 0 60 60"
 xmlns:xlink="http://www.w3.org/1999/xlink"
 xmlns:xodm="http://www.corel.com/coreldraw/odm/2003">
 <defs>
  <style type="text/css">
   <![CDATA[
    .fil0 {fill:#FCEF71}
   ]]>
  </style>
 </defs>
 <g id="Camada_x0020_1">
  <metadata id="CorelCorpID_0Corel-Layer"/>
  <path class="fil0" d="M20.27 32.58c6.1,0 12.78,0 19.46,0 2.52,0 3.58,-2.56 2.21,-4.19 -0.39,-0.45 -0.8,-0.71 -1.36,-0.86 -0.93,-0.24 -15.16,-0.11 -17.73,-0.11 -1.42,0 -3.16,-0.17 -4.08,0.37 -0.98,0.58 -1.78,1.93 -1.02,3.35l0.23 0.35c0.02,0.02 0.04,0.05 0.06,0.07l0.21 0.23c0.12,0.13 0.16,0.17 0.31,0.28 0.45,0.33 1,0.51 1.71,0.51zm9.73 -32.58c16.57,0 30,13.43 30,30 0,16.57 -13.43,30 -30,30 -16.57,0 -30,-13.43 -30,-30 0,-16.57 13.43,-30 30,-30zm0 5.2c13.7,0 24.8,11.1 24.8,24.8 0,13.7 -11.1,24.8 -24.8,24.8 -13.7,0 -24.8,-11.1 -24.8,-24.8 0,-13.7 11.1,-24.8 24.8,-24.8zm-10.08 37.34l20.16 0c1.28,0 2.44,-1.18 2.47,-2.45 0.03,-1.34 -1.02,-2.59 -2.35,-2.59 -6.8,0 -13.6,0 -20.4,0 -1.58,0 -2.93,1.93 -2.09,3.53 0.01,0.02 0.03,0.05 0.04,0.07 0.01,0.02 0.03,0.05 0.04,0.07 0.07,0.13 0.07,0.13 0.12,0.22 0.37,0.64 1.27,1.15 2.01,1.15zm-2.46 -22.62c0,1.21 0.78,2.3 1.94,2.54 0.67,0.14 11.82,0.04 13.06,0.04 1.68,0 7.6,0.26 8.61,-0.19 1.03,-0.46 2.02,-1.94 1.12,-3.53 -0.31,-0.54 -0.35,-0.61 -0.87,-0.91 -0.6,-0.34 -0.7,-0.41 -1.48,-0.41 -6.64,0 -13.28,0 -19.92,0 -1.27,0 -2.46,1.19 -2.46,2.46z"/>
 </g>
</svg>
