<?xml version="1.0" encoding="UTF-8"?>
<!DOCTYPE svg PUBLIC "-//W3C//DTD SVG 1.1//EN" "http://www.w3.org/Graphics/SVG/1.1/DTD/svg11.dtd">
<!-- Creator: CorelDRAW 2020 (64 Bit) -->
<svg xmlns="http://www.w3.org/2000/svg" xml:space="preserve" width="60px" height="60px" version="1.1" style="shape-rendering:geometricPrecision; text-rendering:geometricPrecision; image-rendering:optimizeQuality; fill-rule:evenodd; clip-rule:evenodd"
viewBox="0 0 60 60"
 xmlns:xlink="http://www.w3.org/1999/xlink"
 xmlns:xodm="http://www.corel.com/coreldraw/odm/2003">
 <defs>
  <style type="text/css">
   <![CDATA[
    .fil0 {fill:#FCEF71}
   ]]>
  </style>
 </defs>
 <g id="Camada_x0020_1">
  <metadata id="CorelCorpID_0Corel-Layer"/>
  <path class="fil0" d="M30 0c16.57,0 30,13.43 30,30 0,16.57 -13.43,30 -30,30 -16.57,0 -30,-13.43 -30,-30 0,-16.57 13.43,-30 30,-30zm6.88 18.88c1.17,-1.17 3.07,-1.17 4.24,0 1.17,1.17 1.17,3.07 0,4.24l-6.88 6.88 6.88 6.88c1.17,1.17 1.17,3.07 0,4.24 -1.17,1.17 -3.07,1.17 -4.24,0l-6.88 -6.88 -6.88 6.88c-1.17,1.17 -3.07,1.17 -4.24,0 -1.17,-1.17 -1.17,-3.07 0,-4.24l6.88 -6.88 -6.88 -6.88c-1.17,-1.17 -1.17,-3.07 0,-4.24 1.17,-1.17 3.07,-1.17 4.24,0l6.88 6.88 6.88 -6.88zm-6.88 -13.68c13.7,0 24.8,11.1 24.8,24.8 0,13.7 -11.1,24.8 -24.8,24.8 -13.7,0 -24.8,-11.1 -24.8,-24.8 0,-13.7 11.1,-24.8 24.8,-24.8z"/>
 </g>
</svg>
