<?xml version="1.0" encoding="UTF-8"?>
<!DOCTYPE svg PUBLIC "-//W3C//DTD SVG 1.1//EN" "http://www.w3.org/Graphics/SVG/1.1/DTD/svg11.dtd">
<!-- Creator: CorelDRAW 2020 (64 Bit) -->
<svg xmlns="http://www.w3.org/2000/svg" xml:space="preserve" width="200px" height="200px" version="1.1" style="shape-rendering:geometricPrecision; text-rendering:geometricPrecision; image-rendering:optimizeQuality; fill-rule:evenodd; clip-rule:evenodd"
viewBox="0 0 200 200"
 xmlns:xlink="http://www.w3.org/1999/xlink"
 xmlns:xodm="http://www.corel.com/coreldraw/odm/2003">
 <defs>
  <style type="text/css">
   <![CDATA[
    .fil0 {fill:#2B2A29}
    .fil1 {fill:#FCEF71}
    .fil2 {fill:#FCEF71;fill-rule:nonzero}
   ]]>
  </style>
 </defs>
 <g id="Camada_x0020_1">
  <metadata id="CorelCorpID_0Corel-Layer"/>
  <g id="_1460126560">
   <circle class="fil0" cx="99.5" cy="100.5" r="100"/>
   <circle class="fil1" cx="99.5" cy="100.5" r="95.59"/>
   <circle class="fil0" cx="99.5" cy="100.5" r="89.91"/>
   <path class="fil1" d="M97.15 89.05c7.89,-1.07 14.79,2.15 19.07,5.76 4.13,3.49 7.9,8.95 8.72,16.22 1.65,14.67 -9.09,26.1 -21.85,27.72 -7.96,1.01 -14.84,-2.05 -19.18,-5.73 -16.23,-13.77 -9.23,-40.92 13.24,-43.97zm-10.43 26.02c0.68,7.08 6.81,12.9 14.64,12.17 6.78,-0.63 12.73,-6.69 12.05,-14.47 -0.61,-6.95 -6.62,-12.9 -14.59,-12.21 -6.86,0.58 -12.83,6.82 -12.1,14.51zm-55.46 -15.34c1.26,1.52 12.35,4.57 15.62,4.57 6.68,-0.01 13.39,-0.06 20.1,0.02l-1.04 4.85c-1.57,0.18 -23.91,0.05 -26.15,0.05 -7.46,0 -4.95,-0.47 -11.84,1.09 -1.63,0.36 -8.73,2.3 -9.37,3.58 0.59,0.94 3.14,1.62 4.47,2.08 2.58,0.91 8.09,2.5 10.51,2.59 5.4,0.2 30.6,-0.33 32.44,0.1l0.84 4.54c-6.75,0.12 -13.55,-0.04 -20.31,0.01 -2.86,0.02 -14.41,3.01 -15.28,4.68 0.67,0.82 2.61,1.42 3.84,1.83l2.27 0.79c0.04,0.01 0.08,0.02 0.13,0.03 4.32,1.2 6.3,2.01 11.41,2.01 2.34,0 21.76,-0.18 22.26,0.06 0.41,0.4 0.87,1.15 1.23,1.65 0.44,0.6 0.82,1.05 1.26,1.61 0.74,0.95 1.75,2.04 2.68,2.88 1.91,1.73 3.78,3.31 6.34,4.79 10.95,6.34 24,6.33 34.93,-0.08 3.22,-1.89 6.71,-4.9 8.98,-7.71 0.63,-0.78 1.79,-2.57 2.43,-3.17 1.32,-0.57 21.89,0.72 26.66,-0.48 2.35,-0.59 11.18,-2.76 12.01,-4.21 -0.49,-1.19 -5.79,-2.59 -6.9,-2.93 -1.88,-0.59 -5.84,-1.75 -7.98,-1.75 -4.37,-0.01 -16.15,0.21 -19.59,-0.04l0.96 -4.58c8.33,-0.29 17.15,-0.02 25.54,-0.02 6.09,0 5.62,0.43 11.61,-1.19 1.94,-0.52 8.38,-2.26 9.1,-3.49 -0.69,-1.24 -7.27,-3.08 -9.24,-3.54 -6.64,-1.58 -4.47,-1.13 -11.47,-1.13 -8.43,0.01 -17.15,0.21 -25.53,-0.02l-1.03 -4.83c2.25,-0.35 7.16,-0.07 9.69,-0.07 8.13,0 9.9,0.68 17.83,-1.75 1.66,-0.51 6.25,-1.74 7.01,-2.82 -0.2,-0.67 -0.54,-0.7 -1.7,-1.22 -0.59,-0.26 -1.27,-0.47 -1.97,-0.73 -4.35,-1.59 -8.77,-2.78 -13.58,-2.78 -3.88,0 -19.17,0.2 -21.73,-0.04 -2.38,-4.11 -7.11,-8.32 -11.32,-10.76 -4.72,-2.74 -10.55,-4.69 -17.38,-4.69 -9.74,0 -17.27,3.72 -23.68,9.52 -0.98,0.89 -1.77,1.79 -2.67,2.89 -0.78,0.95 -1.51,2.15 -2.32,3.05 -0.34,0.17 -20.18,0.03 -22.43,0.03 -4.17,0 -6.21,0.4 -9.83,1.48 -1.48,0.45 -7.48,2.07 -7.81,3.25z"/>
   <path class="fil2" d="M57.48 42.51l-3.02 22.95 -9.04 0 -3.46 -22.95 6.29 0c0.72,6.33 1.23,11.68 1.56,16.06 0.32,-4.43 0.64,-8.36 0.98,-11.78l0.4 -4.28 6.29 0zm10.95 0l3.41 22.95 -6.1 0 -0.32 -4.12 -2.15 0 -0.33 4.12 -6.17 0 3.02 -22.95 8.64 0zm-3.17 14.76c-0.29,-2.6 -0.59,-5.82 -0.91,-9.66 -0.59,4.41 -0.96,7.63 -1.12,9.66l2.03 0zm21.15 -14.76l0 15.34c0,1.74 -0.05,2.96 -0.17,3.67 -0.11,0.7 -0.45,1.43 -1,2.17 -0.56,0.74 -1.29,1.3 -2.2,1.68 -0.91,0.39 -1.99,0.58 -3.23,0.58 -1.37,0 -2.57,-0.23 -3.62,-0.68 -1.05,-0.46 -1.83,-1.05 -2.35,-1.77 -0.52,-0.73 -0.83,-1.5 -0.92,-2.31 -0.1,-0.81 -0.14,-2.51 -0.14,-5.1l0 -13.58 5.97 0 0 17.21c0,1 0.06,1.65 0.16,1.92 0.11,0.28 0.33,0.42 0.65,0.42 0.37,0 0.61,-0.15 0.72,-0.46 0.1,-0.31 0.16,-1.03 0.16,-2.17l0 -16.92 5.97 0zm8.3 0l0 18.36 3.6 0 0 4.59 -9.58 0 0 -22.95 5.98 0zm14.99 0l0 4.58 -3.51 0 0 18.37 -5.98 0 0 -18.37 -3.54 0 0 -4.58 13.03 0zm6.24 11.57l0 3.95 -7.49 0 0 -3.95 7.49 0zm13.74 -11.57l0 4.58 -3.51 0 0 18.37 -5.98 0 0 -18.37 -3.54 0 0 -4.58 13.03 0zm1.36 0l9.95 0 0 4.58 -3.97 0 0 4.38 3.71 0 0 4.35 -3.71 0 0 5.05 4.38 0 0 4.59 -10.36 0 0 -22.95zm25.98 10.01l-5.97 0 0 -3.99c0,-1.16 -0.07,-1.88 -0.19,-2.17 -0.13,-0.28 -0.41,-0.43 -0.84,-0.43 -0.48,0 -0.79,0.17 -0.92,0.52 -0.13,0.36 -0.2,1.11 -0.2,2.27l0 10.65c0,1.12 0.07,1.84 0.2,2.18 0.13,0.34 0.42,0.51 0.88,0.51 0.44,0 0.73,-0.17 0.86,-0.51 0.14,-0.34 0.21,-1.14 0.21,-2.4l0 -2.89 5.97 0 0 0.89c0,2.38 -0.16,4.07 -0.5,5.06 -0.33,1 -1.08,1.87 -2.22,2.62 -1.15,0.75 -2.57,1.12 -4.25,1.12 -1.74,0 -3.19,-0.31 -4.32,-0.95 -1.13,-0.63 -1.89,-1.51 -2.26,-2.63 -0.36,-1.12 -0.55,-2.8 -0.55,-5.05l0 -6.7c0,-1.66 0.06,-2.9 0.17,-3.72 0.12,-0.83 0.45,-1.63 1.02,-2.39 0.56,-0.77 1.34,-1.37 2.33,-1.81 1,-0.44 2.15,-0.66 3.44,-0.66 1.76,0 3.21,0.34 4.35,1.02 1.15,0.68 1.89,1.53 2.26,2.54 0.35,1.02 0.53,2.59 0.53,4.74l0 2.18z"/>
  </g>
 </g>
</svg>
