<?xml version="1.0" encoding="UTF-8"?>
<!DOCTYPE svg PUBLIC "-//W3C//DTD SVG 1.1//EN" "http://www.w3.org/Graphics/SVG/1.1/DTD/svg11.dtd">
<!-- Creator: CorelDRAW 2020 (64 Bit) -->
<svg xmlns="http://www.w3.org/2000/svg" xml:space="preserve" width="140px" height="60px" version="1.1" style="shape-rendering:geometricPrecision; text-rendering:geometricPrecision; image-rendering:optimizeQuality; fill-rule:evenodd; clip-rule:evenodd"
viewBox="0 0 140 60"
 xmlns:xlink="http://www.w3.org/1999/xlink"
 xmlns:xodm="http://www.corel.com/coreldraw/odm/2003">
 <defs>
  <style type="text/css">
   <![CDATA[
    .fil0 {fill:#2B2A29}
   ]]>
  </style>
 </defs>
 <g id="Camada_x0020_1">
  <metadata id="CorelCorpID_0Corel-Layer"/>
  <path class="fil0" d="M67.96 8.32c6.84,-0.93 12.8,1.87 16.5,5.02 3.58,3.05 6.84,7.82 7.55,14.16 1.42,12.8 -7.86,22.77 -18.9,24.18 -6.89,0.88 -12.84,-1.78 -16.59,-5 -14.05,-12.01 -7.99,-35.7 11.44,-38.36zm-9.01 22.71c0.58,6.17 5.89,11.25 12.66,10.61 5.86,-0.55 11.02,-5.84 10.43,-12.63 -0.53,-6.06 -5.73,-11.25 -12.63,-10.65 -5.93,0.51 -11.1,5.95 -10.46,12.67zm-47.98 -13.4c1.09,1.33 10.68,4 13.51,3.99 5.78,0 11.58,-0.04 17.39,0.02l-0.9 4.23c-1.36,0.16 -20.68,0.05 -22.62,0.05 -6.45,0 -4.28,-0.41 -10.24,0.94 -1.42,0.33 -7.56,2.02 -8.11,3.13 0.51,0.82 2.71,1.41 3.86,1.82 2.24,0.79 7.01,2.18 9.1,2.26 4.67,0.17 26.47,-0.3 28.06,0.09l0.72 3.95c-5.83,0.11 -11.71,-0.03 -17.56,0.02 -2.48,0.02 -12.46,2.62 -13.22,4.08 0.58,0.71 2.26,1.23 3.32,1.6l1.96 0.68c0.04,0.01 0.08,0.02 0.12,0.03 3.73,1.04 5.45,1.76 9.87,1.76 2.02,0 18.82,-0.17 19.26,0.04 0.35,0.35 0.75,1.01 1.06,1.44 0.38,0.53 0.71,0.92 1.09,1.41 0.64,0.83 1.51,1.78 2.32,2.51 1.65,1.51 3.27,2.89 5.48,4.18 9.47,5.53 20.77,5.52 30.22,-0.07 2.78,-1.65 5.8,-4.27 7.77,-6.73 0.54,-0.67 1.55,-2.24 2.1,-2.76 1.14,-0.5 18.94,0.63 23.06,-0.42 2.04,-0.51 9.67,-2.41 10.4,-3.67 -0.43,-1.04 -5.02,-2.26 -5.97,-2.56 -1.64,-0.52 -5.06,-1.52 -6.91,-1.53 -3.78,0 -13.97,0.19 -16.94,-0.03l0.83 -4c7.2,-0.25 14.83,-0.02 22.09,-0.02 5.27,0 4.86,0.38 10.04,-1.03 1.68,-0.46 7.25,-1.98 7.87,-3.05 -0.6,-1.08 -6.28,-2.68 -7.99,-3.09 -5.74,-1.37 -3.87,-0.99 -9.92,-0.98 -7.29,0 -14.84,0.19 -22.09,-0.02l-0.89 -4.22c1.95,-0.3 6.2,-0.05 8.39,-0.05 7.03,0 8.56,0.58 15.42,-1.54 1.43,-0.44 5.41,-1.51 6.06,-2.46 -0.17,-0.58 -0.46,-0.6 -1.47,-1.06 -0.51,-0.22 -1.1,-0.41 -1.7,-0.63 -3.77,-1.39 -7.59,-2.43 -11.75,-2.43 -3.35,0 -16.58,0.17 -18.8,-0.04 -2.06,-3.58 -6.14,-7.25 -9.79,-9.38 -4.09,-2.39 -9.13,-4.09 -15.03,-4.09 -8.43,0 -14.95,3.24 -20.49,8.31 -0.85,0.77 -1.53,1.56 -2.31,2.52 -0.67,0.82 -1.3,1.87 -2.01,2.65 -0.29,0.15 -17.46,0.03 -19.4,0.03 -3.61,0 -5.37,0.35 -8.5,1.3 -1.29,0.39 -6.48,1.8 -6.76,2.82z"/>
 </g>
</svg>
